<svg width="67" height="52" viewBox="0 0 67 52" fill="none" xmlns="http://www.w3.org/2000/svg">
<path fill-rule="evenodd" clip-rule="evenodd" d="M62.7472 51.9507V1C42.8153 2.08406 21.2434 4.0058 4.1709 7.15942L11.4456 21.7449V51.9507H62.7472ZM45.8009 14.1565H48.8285L51.3515 27.1159L53.8746 14.1565H56.9022V44.4116H53.8746V34.0638L53.9587 25.0464H53.7064L51.9403 38.3014H50.7208L48.9547 25.0464H48.7444L48.8285 34.0638V44.4116H45.8009V14.1565ZM35.1621 18.4435C35.1621 15.5362 36.8441 13.713 39.4092 13.713C41.9322 13.713 43.6563 15.5362 43.6563 18.4435V40.1739C43.6563 43.0812 41.9743 44.9043 39.4092 44.9043C36.8862 44.9043 35.1621 43.0812 35.1621 40.1739V18.4435ZM34.4473 14.1565L34.1949 17.7043H31.9663V44.4116H28.6443V17.7043H26.4577L26.2054 14.1565H34.4473ZM19.225 14.1565H24.8177L26.752 44.4116H23.5141L23.1777 38.0058H20.7808L20.4444 44.4116H17.2066L19.225 14.1565ZM22.1685 17.7044H21.8741L21.0331 34.7536H23.0095L22.1685 17.7044ZM40.4184 40.1739C40.4184 40.8638 39.9979 41.3565 39.4092 41.3565C38.7785 41.3565 38.4 40.8638 38.4 40.1739V18.4435C38.4 17.7536 38.8205 17.2609 39.4092 17.2609C39.9979 17.2609 40.4184 17.7536 40.4184 18.4435V40.1739Z" fill="#008066"/>
</svg>
