<svg width="24" height="24" viewBox="0 0 24 24" fill="none" xmlns="http://www.w3.org/2000/svg">
<path d="M6.00012 19C6.00012 19.5304 6.21084 20.0391 6.58591 20.4142C6.96098 20.7893 7.46969 21 8.00012 21H16.0001C16.5306 21 17.0393 20.7893 17.4143 20.4142C17.7894 20.0391 18.0001 19.5304 18.0001 19V7H6.00012V19ZM8.46012 11.88L9.87012 10.47L12.0001 12.59L14.1201 10.47L15.5301 11.88L13.4101 14L15.5301 16.12L14.1201 17.53L12.0001 15.41L9.88012 17.53L8.47012 16.12L10.5901 14L8.46012 11.88ZM15.5001 4L14.5001 3H9.50012L8.50012 4H5.00012V6H19.0001V4H15.5001Z" fill="#1A1A1A"/>
</svg>
