<svg width="24" height="24" viewBox="0 0 24 24" fill="none" xmlns="http://www.w3.org/2000/svg">
<path d="M12 22C6.477 22 2 17.523 2 12C2 6.47697 6.477 1.99997 12 1.99997C17.523 1.99997 22 6.47697 22 12C22 17.523 17.523 22 12 22ZM11 15V17H13V15H11ZM13 13.355C13.8037 13.1127 14.4936 12.5899 14.9442 11.8817C15.3947 11.1735 15.5759 10.327 15.4547 9.49644C15.3336 8.66585 14.9181 7.90641 14.284 7.35643C13.6499 6.80644 12.8394 6.50251 12 6.49997C11.1909 6.49991 10.4067 6.78012 9.78079 7.29296C9.15492 7.8058 8.72601 8.5196 8.567 9.31297L10.529 9.70597C10.5847 9.4274 10.7183 9.17037 10.9144 8.96479C11.1104 8.7592 11.3608 8.61351 11.6364 8.54467C11.912 8.47584 12.2015 8.48668 12.4712 8.57594C12.7409 8.6652 12.9797 8.82921 13.1598 9.04888C13.34 9.26855 13.454 9.53486 13.4887 9.81681C13.5234 10.0988 13.4773 10.3848 13.3558 10.6416C13.2343 10.8983 13.0423 11.1153 12.8023 11.2673C12.5623 11.4193 12.2841 11.5 12 11.5C11.7348 11.5 11.4804 11.6053 11.2929 11.7929C11.1054 11.9804 11 12.2348 11 12.5V14H13V13.355Z" fill="#1A1A1A"/>
</svg>
